<svg id="Layer_1" enable-background="new 0 0 511.336 511.336" height="512" viewBox="0 0 511.336 511.336" width="512" xmlns="http://www.w3.org/2000/svg"><path d="m490.336 287.669v160s-.67-117.34-106.67-117.34h-138.66l-.01 117.34-224-192 224-192 .01 117.34h138.66c58.91 0 106.67 47.75 106.67 106.66z" fill="#fff3e4"/><path d="m383.666 181.009h-138.66v149.32h138.66c106 0 106.67 117.34 106.67 117.34v-160c0-58.91-47.76-106.66-106.67-106.66z" fill="#ffebd2"/><path d="m383.666 160.009h-117.662l-.008-96.342c-.001-17.91-21.071-27.594-34.666-15.942l-224 192c-9.769 8.372-9.776 23.511 0 31.889l224 192c13.558 11.622 34.665 2.02 34.666-15.942l.008-96.342h117.662c35.106 0 59.151 14.841 73.508 45.37 11.712 24.905 12.16 50.896 12.163 51.09.066 11.555 9.451 20.881 20.998 20.88 11.563 0 21.001-9.366 21.001-21v-160c0-70.392-57.273-127.661-127.67-127.661zm85.67 181.802c-23.141-22.635-52.915-32.481-85.67-32.481h-138.66c-11.597 0-20.999 9.401-21 20.998l-.006 71.686-170.736-146.345 170.736-146.344c.007 86.025.007 59.162 0 125.009-.001 11.599 9.399 21.002 20.998 21.003 11.549 0 21.001-9.351 21.002-20.997l.004-32.33h117.663c47.239 0 85.67 38.427 85.67 85.66v54.141z"/></svg>